<svg width="16" height="16" viewBox="0 0 16 16" fill="none" xmlns="http://www.w3.org/2000/svg">
<path d="M14.2069 3.86207L10.3448 0H1.79309V16H14.2069V3.86207Z" fill="#EDEADA"/>
<path d="M10.3448 0V3.86207H14.2069L10.3448 0Z" fill="#CEC9AE"/>
<path d="M5.70657 12.0338C5.10215 12.3486 4.89884 12.95 4.82491 13.5737C4.71071 13.478 4.5965 13.3825 4.48257 13.2868C4.21195 13.06 3.8194 13.4482 4.0925 13.6771C4.35043 13.8931 4.60864 14.1094 4.86657 14.3257C5.04919 14.4788 5.32891 14.3839 5.33746 14.1306C5.3576 13.5329 5.38629 12.8222 5.98519 12.5105C6.30077 12.3461 6.0216 11.87 5.70657 12.0338Z" fill="#7383BF"/>
<path d="M9.93774 13.4363C9.82105 13.2763 9.70078 13.1431 9.48753 13.1271C9.0856 13.0967 8.39567 13.6719 8.11043 13.1635C8.03816 13.0344 7.8594 12.9869 7.73305 13.0645C7.34243 13.3042 6.83181 13.649 6.42105 13.2024C6.17967 12.94 5.79043 13.3312 6.03098 13.5924C6.54712 14.1536 7.21278 13.9817 7.79843 13.6639C7.92202 13.7966 8.06988 13.8873 8.26657 13.9582C8.51733 14.0487 9.39402 13.6217 9.46188 13.7147C9.66905 13.9988 10.1482 13.724 9.93774 13.4363Z" fill="#7383BF"/>
<path d="M7.19805 5.81848L6.50536 5.46455C6.45819 5.44027 6.4284 5.39172 6.4284 5.33848V5.12634C6.78398 4.97324 6.9884 4.67558 7.08771 4.30345C7.2375 4.2571 7.34785 4.11834 7.34785 3.95365V3.76965C7.34785 3.62869 7.26674 3.50731 7.14978 3.44551C7.06867 2.75393 6.61157 2.4742 5.87667 2.4742C5.84192 2.4742 5.80771 2.47558 5.77433 2.47834C5.52467 2.4982 5.27198 2.45103 5.06426 2.31117C4.97792 2.25296 4.90509 2.19117 4.85405 2.12634C4.83088 2.09683 4.78398 2.11558 4.7884 2.1531C4.79585 2.21738 4.80661 2.29241 4.82288 2.37462C4.88357 2.68 4.84743 2.63531 4.72936 2.92331C4.66398 3.08276 4.62205 3.25931 4.60247 3.44662C4.48605 3.50869 4.4055 3.62979 4.4055 3.76993V3.95393C4.4055 4.11862 4.51585 4.25738 4.66564 4.30372C4.76495 4.67586 4.96936 4.97351 5.32495 5.12662V5.33738C5.32495 5.39117 5.29433 5.44055 5.24605 5.46427L4.53599 5.81407C4.41571 5.87972 4.32854 5.98483 4.27612 6.1062C4.72743 6.42869 5.27916 6.62069 5.8764 6.62069C6.47143 6.62069 7.02123 6.43034 7.47198 6.10979C7.41571 5.98676 7.32357 5.88138 7.19805 5.81848Z" fill="#CEC9AE"/>
<path d="M5.42676 9.29248H5.86475C5.85596 9.43604 5.81641 9.56348 5.74609 9.6748C5.67676 9.78613 5.57959 9.87305 5.45459 9.93555C5.33057 9.99805 5.18115 10.0293 5.00635 10.0293C4.86963 10.0293 4.74707 10.0059 4.63867 9.95898C4.53027 9.91113 4.4375 9.84277 4.36035 9.75391C4.28418 9.66504 4.22607 9.55762 4.18604 9.43164C4.146 9.30566 4.12598 9.16455 4.12598 9.0083V8.86035C4.12598 8.7041 4.14648 8.56299 4.1875 8.43701C4.22949 8.31006 4.28906 8.20215 4.36621 8.11328C4.44434 8.02441 4.5376 7.95605 4.646 7.9082C4.75439 7.86035 4.87549 7.83643 5.00928 7.83643C5.18701 7.83643 5.33691 7.86865 5.45898 7.93311C5.58203 7.99756 5.67725 8.08643 5.74463 8.19971C5.81299 8.31299 5.854 8.44189 5.86768 8.58643H5.42822C5.42334 8.50049 5.40625 8.42773 5.37695 8.36816C5.34766 8.30762 5.30322 8.26221 5.24365 8.23193C5.18506 8.20068 5.10693 8.18506 5.00928 8.18506C4.93604 8.18506 4.87207 8.19873 4.81738 8.22607C4.7627 8.25342 4.7168 8.29492 4.67969 8.35059C4.64258 8.40625 4.61475 8.47656 4.59619 8.56152C4.57861 8.64551 4.56982 8.74414 4.56982 8.85742V9.0083C4.56982 9.11865 4.57812 9.21582 4.59473 9.2998C4.61133 9.38281 4.63672 9.45312 4.6709 9.51074C4.70605 9.56738 4.75098 9.61035 4.80566 9.63965C4.86133 9.66797 4.92822 9.68213 5.00635 9.68213C5.09814 9.68213 5.17383 9.66748 5.2334 9.63818C5.29297 9.60889 5.33838 9.56543 5.36963 9.50781C5.40186 9.4502 5.4209 9.37842 5.42676 9.29248ZM7.22236 9.55469L7.7248 7.86719H8.21406L7.47139 10H7.14912L7.22236 9.55469ZM6.75947 7.86719L7.26045 9.55469L7.33662 10H7.01143L6.27314 7.86719H6.75947Z" fill="#7383BF"/>
</svg>
