<svg width="16" height="16" viewBox="0 0 16 16" fill="none" xmlns="http://www.w3.org/2000/svg">
<path d="M8 0C3.58199 0 0 3.58199 0 8C0 12.4185 3.58199 16 8 16C12.418 16 16 12.4185 16 8C15.9999 3.58199 12.418 0 8 0ZM10.2409 14.0945C10.1949 13.4685 10.1435 12.693 10.1404 12.379C10.1204 12.138 10.0944 11.525 9.51245 11.1335C11.8229 10.94 12.9224 9.663 13.0015 7.9755C13.0675 7.01453 12.6854 6.16949 12.007 5.48752C12.0415 4.75804 11.985 3.89351 11.938 3.51355C11.417 3.36356 10.202 4.00505 9.86247 4.27955C9.14645 4.00154 7.39399 3.90405 6.32899 4.27955C5.57397 3.74856 4.71449 3.42057 4.246 3.51207C3.81348 4.47058 4.0915 5.37658 4.17597 5.48455C3.61895 5.99357 2.84196 6.62007 3.05297 7.93256C3.39146 9.85704 4.74546 10.8951 6.92544 11.149C6.46047 11.244 6.38193 11.591 6.34294 11.7415C4.87892 12.3455 4.46047 11.3686 4.27544 11.114C3.66096 10.3535 3.10943 10.574 3.07544 10.586C3.04243 10.598 3.01744 10.646 3.02095 10.669C3.05193 10.833 3.38646 10.9995 3.40294 11.013C3.85643 11.351 4.02444 11.9615 4.12791 12.1355C4.77842 13.205 6.29043 12.7615 6.30493 12.7705C6.30592 12.864 6.29444 13.651 6.28543 14.2635C3.52849 13.5105 1.49999 10.9955 1.49999 8C1.49999 4.41 4.41 1.50004 7.99994 1.50004C11.5899 1.50004 14.5 4.41 14.5 8C14.5 10.8015 12.725 13.1809 10.2409 14.0945Z" fill="#2B414D"/>
</svg>
