<svg width="16" height="16" viewBox="0 0 16 16" fill="none" xmlns="http://www.w3.org/2000/svg">
<path d="M8 0C3.58169 0 0 3.58169 0 8C0 12.4183 3.58169 16 8 16C12.4183 16 16 12.4183 16 8C16 3.58169 12.4183 0 8 0Z" fill="#40B3E0"/>
<path d="M11.8926 4.60194L10.4638 11.8061C10.4638 11.8061 10.264 12.3057 9.7144 12.0659L6.41702 9.53794L5.21802 8.95844L3.19965 8.27894C3.19965 8.27894 2.8899 8.16906 2.8599 7.92925C2.82996 7.68944 3.20965 7.55956 3.20965 7.55956L11.2331 4.41206C11.2331 4.41206 11.8926 4.12231 11.8926 4.60194Z" fill="white"/>
<path d="M6.16364 11.7252C6.16364 11.7252 6.06739 11.7162 5.94745 11.3365C5.82758 10.9568 5.21808 8.95842 5.21808 8.95842L10.0641 5.88092C10.0641 5.88092 10.344 5.71104 10.334 5.88092C10.334 5.88092 10.3839 5.91086 10.234 6.05073C10.0841 6.19067 6.42708 9.47798 6.42708 9.47798" fill="#D2E5F1"/>
<path d="M7.68132 10.5072L6.37707 11.6964C6.37707 11.6964 6.27514 11.7737 6.16357 11.7252L6.41332 9.51642" fill="#B5CFE4"/>
</svg>
