<svg width="16" height="16" viewBox="0 0 16 16" fill="none" xmlns="http://www.w3.org/2000/svg">
<path d="M14.736 7.37648L8.62348 1.26398C8.53987 1.18007 8.44052 1.1135 8.33112 1.06808C8.22172 1.02265 8.10444 0.999268 7.98598 0.999268C7.86753 0.999268 7.75024 1.02265 7.64085 1.06808C7.53145 1.1135 7.4321 1.18007 7.34848 1.26398L6.07898 2.53348L7.68898 4.14348C7.87884 4.07887 8.08302 4.06889 8.27827 4.11468C8.47352 4.16046 8.65198 4.26018 8.79332 4.40245C8.93466 4.54473 9.03319 4.72384 9.07768 4.91939C9.12218 5.11494 9.11085 5.31906 9.04498 5.50848L10.595 7.05848C10.8267 6.97888 11.0786 6.98109 11.3089 7.06472C11.5392 7.14835 11.7338 7.30835 11.8604 7.51808C11.987 7.72781 12.0379 7.97458 12.0047 8.21729C11.9714 8.46 11.856 8.68399 11.6777 8.85193C11.4993 9.01988 11.2688 9.12163 11.0245 9.14025C10.7803 9.15886 10.537 9.09321 10.3352 8.95424C10.1335 8.81526 9.98548 8.61135 9.91583 8.37648C9.84618 8.14161 9.85912 7.88997 9.95248 7.66348L8.50498 6.21598V10.0245C8.72426 10.1331 8.89969 10.3136 9.00205 10.5359C9.10442 10.7581 9.12755 11.0088 9.06758 11.246C9.00762 11.4833 8.86818 11.6928 8.67249 11.8397C8.4768 11.9867 8.23668 12.0621 7.99212 12.0535C7.74756 12.0449 7.51333 11.9528 7.32844 11.7925C7.14355 11.6322 7.01917 11.4134 6.97601 11.1725C6.93285 10.9316 6.97351 10.6832 7.09123 10.4687C7.20896 10.2542 7.39663 10.0865 7.62298 9.99348V6.14998C7.49203 6.09625 7.373 6.01714 7.27275 5.91721C7.1725 5.81728 7.09302 5.6985 7.03888 5.56772C6.98473 5.43694 6.957 5.29674 6.95727 5.15519C6.95755 5.01364 6.98583 4.87355 7.04048 4.74298L5.45548 3.15698L1.26398 7.34998C1.18001 7.4336 1.11337 7.53298 1.0679 7.64243C1.02243 7.75187 0.999023 7.86922 0.999023 7.98773C0.999023 8.10624 1.02243 8.22359 1.0679 8.33303C1.11337 8.44247 1.18001 8.54185 1.26398 8.62548L7.37648 14.736C7.4601 14.8199 7.55945 14.8865 7.66885 14.9319C7.77824 14.9773 7.89553 15.0007 8.01398 15.0007C8.13244 15.0007 8.24972 14.9773 8.35912 14.9319C8.46852 14.8865 8.56787 14.8199 8.65148 14.736L14.736 8.64998C14.82 8.56635 14.8866 8.46697 14.9321 8.35753C14.9775 8.24809 15.0009 8.13074 15.0009 8.01223C15.0009 7.89371 14.9775 7.77637 14.9321 7.66693C14.8866 7.55748 14.82 7.4581 14.736 7.37448" fill="#DD4C35"/>
<path d="M6.07901 2.53351L7.68901 4.14351C7.87886 4.0789 8.08304 4.06892 8.27829 4.11471C8.47354 4.16049 8.652 4.26021 8.79334 4.40248C8.93468 4.54476 9.03321 4.72388 9.0777 4.91942C9.1222 5.11497 9.11087 5.31909 9.04501 5.50851L10.595 7.05851C10.8267 6.97891 11.0787 6.98112 11.3089 7.06475C11.5392 7.14838 11.7338 7.30839 11.8604 7.51811C11.9871 7.72784 12.038 7.97461 12.0047 8.21733C11.9715 8.46004 11.856 8.68402 11.6777 8.85197C11.4993 9.01991 11.2688 9.12167 11.0246 9.14028C10.7803 9.1589 10.537 9.09324 10.3353 8.95427C10.1335 8.81529 9.9855 8.61138 9.91585 8.37651C9.8462 8.14164 9.85914 7.89 9.95251 7.66351L8.50501 6.21601V10.0245C8.72428 10.1331 8.89971 10.3136 9.00208 10.5359C9.10445 10.7582 9.12757 11.0088 9.06761 11.2461C9.00764 11.4833 8.8682 11.6928 8.67251 11.8398C8.47682 11.9867 8.2367 12.0622 7.99214 12.0536C7.74759 12.045 7.51335 11.9528 7.32846 11.7925C7.14358 11.6322 7.01919 11.4134 6.97603 11.1725C6.93287 10.9317 6.97353 10.6833 7.09126 10.4687C7.20898 10.2542 7.39665 10.0865 7.62301 9.99351V6.15001C7.49205 6.09628 7.37302 6.01717 7.27277 5.91724C7.17253 5.81731 7.09304 5.69853 7.0389 5.56775C6.98475 5.43697 6.95702 5.29677 6.9573 5.15522C6.95757 5.01367 6.98585 4.87358 7.04051 4.74301L5.45551 3.15701" fill="white"/>
</svg>
