<svg width="16" height="16" viewBox="0 0 16 16" fill="none" xmlns="http://www.w3.org/2000/svg">
<rect x="3" y="3" width="5" height="10" fill="white"/>
<rect x="8" y="2" width="5" height="11" fill="white"/>
<rect x="12" y="2" width="2" height="3" fill="white"/>
<path d="M2.29954 14.3857L1 0L15 0.00549101L13.7114 14.3747L7.98908 16L2.29954 14.3857ZM12.6576 13.6006L13.7441 1.27934H8.01092L8.0546 14.8689L12.6576 13.6006ZM7.47581 3.0858H6.08347L6.06708 10.4598L3.36428 9.7186L3.36974 11.4043L7.47581 12.5188V3.0858Z" fill="#D4B830"/>
<path d="M8 1H14L12.8628 13.6933L8 15V1ZM12.5543 11.5665L12.9486 6.82061L10.0343 7.14303V4.60889L13.1429 4.59758L13.2686 2.86667L8.57714 2.88929L8.64 9.19071L11.4742 8.7099L11.4343 10.1127L8.57714 10.8651L8.60571 12.5846L12.5543 11.5665Z" fill="#FDD83C"/>
</svg>
