<svg width="16" height="16" viewBox="0 0 16 16" fill="none" xmlns="http://www.w3.org/2000/svg">
<path d="M8 16C12.4183 16 16 12.4183 16 8C16 3.58172 12.4183 0 8 0C3.58172 0 0 3.58172 0 8C0 12.4183 3.58172 16 8 16Z" fill="#13AA52"/>
<path d="M10.1384 7.0225C9.63311 4.79234 8.43889 4.05906 8.3103 3.77891C8.16968 3.58125 8.02718 3.22969 8.02718 3.22969C8.02484 3.22375 8.02109 3.21328 8.01671 3.20312C8.00218 3.40078 7.99468 3.47703 7.80781 3.67641C7.51843 3.90266 6.03376 5.14844 5.91298 7.68219C5.80032 10.0453 7.61999 11.4534 7.86609 11.633L7.89406 11.6528V11.6511C7.89562 11.663 7.97218 12.2136 8.02593 12.797H8.21874C8.26398 12.3846 8.33179 11.975 8.42186 11.57L8.43749 11.5598C8.54757 11.4809 8.65252 11.3951 8.75171 11.3028L8.76296 11.2927C9.28608 10.8094 10.2265 9.69156 10.2173 7.90938C10.2154 7.61209 10.189 7.31546 10.1384 7.0225ZM8.00546 10.2987C8.00546 10.2987 8.00546 6.98438 8.11483 6.985C8.20015 6.985 8.31062 11.2602 8.31062 11.2602C8.15874 11.2419 8.00546 10.5566 8.00546 10.2987Z" fill="white"/>
</svg>
