<svg width="16" height="16" viewBox="0 0 16 16" fill="none" xmlns="http://www.w3.org/2000/svg">
<path d="M7.34772 0.2031C7.74273 -0.0229995 8.25722 -0.0240208 8.65189 0.2031C10.6374 1.32503 12.6236 2.4452 14.6088 3.56781C14.9822 3.77813 15.2319 4.19368 15.2281 4.62392V11.3739C15.2309 11.8219 14.9565 12.2474 14.5625 12.453C12.5835 13.5687 10.6055 14.6858 8.62687 15.8016C8.22369 16.0321 7.69887 16.0143 7.30829 15.7649C6.71498 15.421 6.12066 15.0787 5.5273 14.7351C5.40605 14.6628 5.26937 14.6053 5.18375 14.4877C5.25944 14.3857 5.39476 14.373 5.50471 14.3285C5.75237 14.2497 5.97983 14.1233 6.20735 14.0007C6.26488 13.9613 6.33512 13.9764 6.39027 14.0116C6.89762 14.3025 7.40049 14.6018 7.90954 14.89C8.01813 14.9527 8.12809 14.8694 8.22091 14.8177C10.1629 13.7201 12.1073 12.6266 14.049 11.5287C14.1209 11.4941 14.1607 11.4177 14.1549 11.3389C14.1562 9.11226 14.1552 6.8852 14.1555 4.65853C14.1638 4.56911 14.112 4.4869 14.0312 4.4503C12.059 3.33967 10.0879 2.22733 8.11612 1.1164C8.08195 1.09292 8.04149 1.08032 8.00003 1.08026C7.95857 1.08019 7.91807 1.09268 7.88383 1.11606C5.91203 2.22733 3.94125 3.34069 1.96945 4.45127C1.88889 4.48792 1.83482 4.56877 1.8444 4.65853C1.84475 6.8852 1.8444 9.11226 1.8444 11.3393C1.84099 11.3777 1.84943 11.4163 1.8686 11.4498C1.88778 11.4833 1.91676 11.5101 1.95164 11.5267C2.47782 11.8251 3.00469 12.1213 3.53121 12.4187C3.82784 12.5784 4.19203 12.6732 4.51884 12.5509C4.80724 12.4475 5.0094 12.1532 5.00389 11.847C5.00662 9.63328 5.00253 7.41927 5.00593 5.20593C4.99873 5.10767 5.09195 5.02647 5.18749 5.03572C5.44032 5.03402 5.69348 5.03232 5.9463 5.0364C6.05183 5.03402 6.12446 5.13984 6.11141 5.23884C6.11039 7.46653 6.11413 9.69427 6.10971 11.922C6.11039 12.5157 5.86647 13.1617 5.31731 13.4522C4.64077 13.8026 3.80457 13.7283 3.13621 13.3923C2.5576 13.1035 2.00543 12.7626 1.43709 12.4532C1.04214 12.2488 0.769058 11.8216 0.771838 11.3739V4.62392C0.767697 4.18477 1.02738 3.76168 1.41241 3.55442C3.39107 2.43777 5.3694 1.32026 7.34772 0.2031Z" fill="#8CC84B"/>
<path d="M9.07393 4.87887C9.93691 4.82333 10.8608 4.84597 11.6373 5.2711C12.2386 5.59689 12.5719 6.28063 12.5825 6.94861C12.5657 7.03871 12.4715 7.08841 12.3855 7.08222C12.1351 7.08188 11.8847 7.08563 11.6343 7.08052C11.5281 7.08461 11.4664 6.98668 11.4531 6.89278C11.3811 6.57317 11.2068 6.25663 10.906 6.10248C10.4442 5.87127 9.90877 5.8829 9.40522 5.88773C9.03762 5.90724 8.64233 5.93907 8.3309 6.15524C8.09181 6.31899 8.01918 6.64954 8.10451 6.91576C8.18497 7.10691 8.40562 7.16858 8.58616 7.22543C9.62616 7.49743 10.7282 7.47037 11.7484 7.82832C12.1707 7.97425 12.5839 8.25794 12.7285 8.70016C12.9176 9.29284 12.8347 10.0013 12.413 10.4771C12.071 10.8686 11.573 11.0817 11.0763 11.1975C10.4154 11.3448 9.72965 11.3486 9.05856 11.2831C8.42752 11.2112 7.77084 11.0454 7.28369 10.6154C6.86713 10.2537 6.66367 9.69017 6.68386 9.14623C6.68869 9.05437 6.78015 8.99031 6.86815 8.99786C7.12029 8.99582 7.37243 8.99513 7.62457 8.9982C7.72528 8.99099 7.79995 9.07803 7.80511 9.17295C7.85164 9.47746 7.96608 9.79706 8.23161 9.9776C8.74406 10.3082 9.38707 10.2856 9.97385 10.2948C10.46 10.2733 11.0057 10.2667 11.4024 9.94543C11.6117 9.76217 11.6737 9.45556 11.6171 9.19179C11.5559 8.96909 11.3229 8.86532 11.1228 8.79746C10.0962 8.47269 8.98179 8.59054 7.96505 8.22328C7.55229 8.0774 7.15314 7.8016 6.99456 7.37754C6.77328 6.77737 6.87467 6.03502 7.34054 5.57527C7.79478 5.11797 8.4505 4.94185 9.07393 4.87882V4.87887Z" fill="#8CC84B"/>
</svg>
