<svg width="16" height="16" viewBox="0 0 16 16" fill="none" xmlns="http://www.w3.org/2000/svg">
<path d="M15.6974 9.58096C15.6044 9.29925 15.3607 9.103 15.0456 9.05588C14.897 9.0337 14.7268 9.04316 14.5254 9.08469C14.1744 9.1571 13.9139 9.18466 13.7239 9.19003C14.4412 7.97881 15.0246 6.59757 15.3604 5.29738C15.9034 3.19506 15.6132 2.23731 15.2742 1.80407C14.3768 0.657452 13.0675 0.0414327 11.488 0.0225494C10.6454 0.0122657 9.90567 0.178632 9.51983 0.298239C9.16054 0.234888 8.77421 0.199487 8.36884 0.192929C7.6091 0.180818 6.93776 0.346433 6.36413 0.686834C6.04648 0.579482 5.53684 0.428093 4.94823 0.331455C3.56384 0.104174 2.44811 0.28129 1.63201 0.857823C0.643767 1.5559 0.185622 2.76873 0.270364 4.46268C0.297238 5.00051 0.598117 6.63684 1.07181 8.18875C1.34406 9.08071 1.63437 9.82146 1.93468 10.3905C2.36054 11.1975 2.81621 11.6727 3.32778 11.8434C3.61454 11.9389 4.1355 12.0058 4.68347 11.5495C4.75292 11.6336 4.84554 11.7172 4.96855 11.7948C5.12471 11.8933 5.31569 11.9738 5.50639 12.0215C6.19375 12.1933 6.83757 12.1503 7.38684 11.9095C7.3902 12.0072 7.39282 12.1005 7.39504 12.1811C7.3987 12.3118 7.40228 12.44 7.40708 12.5599C7.43962 13.3705 7.49476 14.0007 7.65815 14.4416C7.66711 14.4659 7.67919 14.5029 7.69194 14.542C7.77342 14.7916 7.90976 15.2094 8.25651 15.5367C8.61565 15.8756 9.05 15.9796 9.44781 15.9796C9.64732 15.9796 9.83769 15.9534 10.0046 15.9176C10.5998 15.7901 11.2758 15.5957 11.7647 14.8995C12.227 14.2413 12.4517 13.25 12.4924 11.688C12.4977 11.6438 12.5025 11.6017 12.5072 11.5614C12.5104 11.5343 12.5136 11.5066 12.5169 11.4789L12.6258 11.4885L12.6539 11.4904C13.2601 11.518 14.0013 11.3895 14.4565 11.178C14.8162 11.0111 15.9688 10.4026 15.6974 9.58096Z" fill="black"/>
<path d="M14.661 9.74075C12.8586 10.1125 12.7346 9.50229 12.7346 9.50229C14.6377 6.67846 15.4332 3.09403 14.7467 2.21676C12.8738 -0.176264 9.63165 0.955482 9.57755 0.984864L9.56013 0.987982C9.20404 0.914061 8.80552 0.870024 8.35762 0.862714C7.54205 0.849349 6.92342 1.07652 6.45399 1.43251C6.45399 1.43251 0.670348 -0.950122 0.939337 4.42912C0.99656 5.57351 2.57957 13.0881 4.46772 10.8184C5.15784 9.98838 5.82464 9.28662 5.82464 9.28662C6.15583 9.50662 6.55231 9.61885 6.96796 9.57854L7.00024 9.55113C6.99021 9.65418 6.99479 9.75497 7.01318 9.87429C6.52676 10.4178 6.66969 10.5132 5.69733 10.7133C4.71342 10.9161 5.29142 11.2771 5.6688 11.3715C6.1263 11.4859 7.18474 11.6479 7.8999 10.6468L7.87138 10.761C8.06197 10.9137 8.1958 11.754 8.17337 12.5157C8.15094 13.2774 8.13596 13.8004 8.28613 14.2089C8.43631 14.6173 8.58597 15.5364 9.86424 15.2625C10.9323 15.0336 11.4858 14.4405 11.5628 13.4511C11.6175 12.7476 11.7411 12.8516 11.749 12.2227L11.8481 11.925C11.9625 10.9715 11.8663 10.6639 12.5243 10.807L12.6843 10.821C13.1686 10.843 13.8025 10.7431 14.1745 10.5702C14.9757 10.1984 15.4508 9.57764 14.6609 9.74075H14.661Z" fill="#336791"/>
<path d="M6.79251 4.9409C6.63012 4.91829 6.48299 4.93922 6.40857 4.99554C6.36668 5.02725 6.35375 5.06398 6.35027 5.08928C6.34092 5.15625 6.38786 5.23028 6.41667 5.26847C6.49822 5.37658 6.6174 5.45089 6.73536 5.46727C6.75245 5.46963 6.76943 5.47078 6.78635 5.47078C6.98306 5.47078 7.16186 5.31763 7.17763 5.20459C7.19734 5.06301 6.9918 4.96863 6.79251 4.9409Z" fill="white"/>
<path d="M12.1733 4.9454H12.1733C12.1578 4.83443 11.9603 4.80279 11.7729 4.82884C11.5858 4.85492 11.4043 4.93938 11.4195 5.0506C11.4316 5.1371 11.5878 5.28476 11.7727 5.28472C11.7882 5.28472 11.804 5.28368 11.8199 5.28146C11.9433 5.26437 12.0338 5.18601 12.0768 5.14082C12.1424 5.07203 12.1803 4.99528 12.1733 4.9454Z" fill="white"/>
<path d="M15.2607 9.69851C15.192 9.49069 14.9708 9.42379 14.6033 9.49972C13.5121 9.72492 13.1213 9.56891 12.9929 9.47442C13.8412 8.18226 14.5389 6.62039 14.9153 5.16307C15.0937 4.47278 15.1922 3.83171 15.2002 3.30921C15.2091 2.73562 15.1114 2.3142 14.9099 2.05675C14.0977 1.01885 12.9056 0.462128 11.4625 0.446828C10.4705 0.435684 9.63232 0.689588 9.46983 0.760965C9.12763 0.675864 8.75459 0.623622 8.34851 0.616957C7.60374 0.604917 6.96003 0.783216 6.42703 1.14662C6.19552 1.06048 5.5972 0.855095 4.86555 0.737244C3.60055 0.533541 2.59536 0.687868 1.87801 1.19607C1.02206 1.80249 0.626908 2.88647 0.703481 4.41785C0.729244 4.93311 1.02278 6.51805 1.48608 8.03596C2.0959 10.0338 2.75875 11.1647 3.45625 11.3974C3.53788 11.4246 3.63205 11.4437 3.73581 11.4437C3.99026 11.4437 4.30217 11.329 4.62673 10.9388C5.16582 10.2902 5.66915 9.74678 5.85469 9.54931C6.12887 9.69651 6.43004 9.77867 6.73816 9.78691C6.73869 9.79497 6.73952 9.80303 6.74023 9.81106C6.67842 9.88437 6.62772 9.94862 6.58451 10.0035C6.37106 10.2744 6.32663 10.3308 5.63952 10.4723C5.44409 10.5126 4.92493 10.6196 4.91737 10.9835C4.90909 11.3811 5.53095 11.548 5.60182 11.5657C5.84874 11.6276 6.08659 11.658 6.31344 11.658C6.86518 11.658 7.35066 11.4767 7.73869 11.1259C7.72672 12.5432 7.78584 13.9398 7.95601 14.3653C8.09536 14.7137 8.43586 15.565 9.51143 15.565C9.66919 15.565 9.84294 15.5466 10.034 15.5057C11.1565 15.265 11.6439 14.7689 11.8325 13.6752C11.9334 13.0906 12.1066 11.6948 12.188 10.9461C12.3599 10.9997 12.5812 11.0242 12.8204 11.0242C13.3193 11.0242 13.895 10.9182 14.256 10.7506C14.6616 10.5623 15.3935 10.1 15.2607 9.69851ZM12.5877 4.63907C12.5839 4.86012 12.5535 5.06077 12.5213 5.27025C12.4866 5.49552 12.4507 5.72843 12.4416 6.01118C12.4327 6.28633 12.4671 6.57241 12.5003 6.84903C12.5675 7.40779 12.6364 7.98307 12.3696 8.55071C12.3282 8.47708 12.2881 8.39675 12.2514 8.30778C12.2183 8.2274 12.1463 8.0983 12.0467 7.91961C11.6588 7.22412 10.7506 5.59542 11.2155 4.93081C11.354 4.73295 11.7054 4.5296 12.5877 4.63907ZM11.5183 0.894438C12.8113 0.922996 13.834 1.40669 14.5582 2.33201C15.1136 3.04176 14.502 6.27128 12.7315 9.05738C12.714 9.03516 12.6962 9.01273 12.6778 8.98973C12.6705 8.98052 12.663 8.97116 12.6554 8.96171C13.1129 8.20612 13.0234 7.45856 12.9438 6.79575C12.9111 6.52375 12.8802 6.26684 12.8881 6.02554C12.8962 5.76971 12.93 5.55038 12.9627 5.33826C13.0029 5.07683 13.0438 4.80637 13.0325 4.4875C13.041 4.45407 13.0444 4.41455 13.04 4.36765C13.0111 4.06186 12.6621 3.14682 11.9505 2.3185C11.5614 1.86551 10.9937 1.35853 10.2188 1.01659C10.5521 0.947505 11.008 0.883079 11.5183 0.894438ZM4.28329 10.6532C3.92572 11.0831 3.67877 11.0007 3.59758 10.9737C3.06845 10.7972 2.45454 9.67891 1.91327 7.90556C1.44491 6.37114 1.17119 4.82819 1.14955 4.39552C1.08115 3.02718 1.41284 2.07352 2.13546 1.56105C3.31146 0.727068 5.24494 1.22624 6.02184 1.47943C6.01066 1.49043 5.99905 1.50075 5.98798 1.51193C4.71313 2.79947 4.74337 4.99925 4.74648 5.13369C4.74638 5.18558 4.75071 5.25903 4.7567 5.36008C4.77863 5.73004 4.81944 6.41865 4.7104 7.1985C4.60903 7.92316 4.83241 8.63245 5.32316 9.14448C5.37397 9.19748 5.427 9.24725 5.48179 9.29408C5.26332 9.52803 4.78859 10.0453 4.28329 10.6532ZM5.64565 8.83543C5.2501 8.42276 5.07048 7.8487 5.15274 7.26034C5.26791 6.43653 5.22538 5.71908 5.20255 5.33363C5.19936 5.27971 5.19653 5.23244 5.19485 5.19514C5.3811 5.03003 6.24418 4.56755 6.85966 4.70858C7.14058 4.77294 7.31168 4.96417 7.38284 5.29318C7.75112 6.99637 7.43161 7.70627 7.17487 8.27671C7.12195 8.39424 7.07196 8.50532 7.02925 8.62026L6.99618 8.70909C6.91241 8.93372 6.83447 9.14255 6.78617 9.34088C6.36572 9.33959 5.95667 9.16 5.64565 8.83543ZM5.71018 11.1324C5.58742 11.1018 5.47699 11.0485 5.4122 11.0043C5.46631 10.9788 5.56262 10.9442 5.72964 10.9098C6.53796 10.7434 6.66277 10.6259 6.93537 10.2798C6.9979 10.2005 7.06874 10.1105 7.16685 10.0009C7.16688 10.0009 7.16692 10.0008 7.16695 10.0008C7.31311 9.83718 7.37994 9.86492 7.50116 9.91519C7.59941 9.95586 7.69508 10.079 7.73388 10.2145C7.75223 10.2785 7.77287 10.4 7.7054 10.4945C7.13592 11.2918 6.30613 11.2816 5.71018 11.1324ZM9.9404 15.0689C8.95156 15.2808 8.60144 14.7763 8.37072 14.1995C8.22181 13.8271 8.14864 12.1479 8.20056 10.2936C8.20124 10.2689 8.19773 10.2451 8.19092 10.2227C8.18501 10.1794 8.17591 10.1357 8.16329 10.0916C8.08604 9.82181 7.89789 9.59611 7.67215 9.50255C7.58246 9.46539 7.41781 9.3972 7.21999 9.4478C7.2622 9.27398 7.33536 9.07773 7.41466 8.86517L7.44795 8.77574C7.48543 8.67494 7.5324 8.57053 7.58214 8.46002C7.8508 7.86314 8.21876 7.04564 7.81942 5.19876C7.66982 4.50703 7.17032 4.16924 6.41309 4.24768C5.9591 4.29466 5.54381 4.47783 5.33667 4.58285C5.29213 4.60542 5.25139 4.62721 5.21334 4.64846C5.27113 3.95146 5.4896 2.64894 6.30671 1.82485C6.82114 1.306 7.50632 1.04977 8.34113 1.06356C9.98598 1.09051 11.0408 1.93463 11.636 2.63805C12.149 3.24421 12.4267 3.85479 12.5376 4.18408C11.704 4.09934 11.137 4.26391 10.8496 4.6748C10.2243 5.56858 11.1916 7.30341 11.6566 8.13714C11.7418 8.28997 11.8154 8.42201 11.8386 8.47812C11.9899 8.84504 12.1859 9.08998 12.3291 9.26882C12.3729 9.32361 12.4155 9.37674 12.4478 9.42315C12.1954 9.49596 11.7418 9.66411 11.7832 10.5048C11.7498 10.9266 11.5128 12.9015 11.3924 13.5993C11.2334 14.5211 10.8942 14.8644 9.9404 15.0689ZM14.0679 10.3455C13.8098 10.4653 13.3777 10.5552 12.9673 10.5745C12.5139 10.5958 12.2832 10.5238 12.2289 10.4795C12.2034 9.95561 12.3984 9.90085 12.6047 9.84291C12.6372 9.83378 12.6688 9.82493 12.6993 9.81425C12.7183 9.82969 12.7391 9.84503 12.7619 9.86004C13.1262 10.1005 13.7762 10.1265 14.6936 9.93712C14.697 9.9364 14.7004 9.93575 14.7037 9.93507C14.58 10.0508 14.3682 10.2061 14.0679 10.3455Z" fill="white"/>
</svg>
