<svg width="16" height="16" viewBox="0 0 16 16" fill="none" xmlns="http://www.w3.org/2000/svg">
<path d="M15.9953 0H0.0046875C0.00209867 0 0 0.00209867 0 0.0046875V15.9953C0 15.9979 0.00209867 16 0.0046875 16H15.9953C15.9979 16 16 15.9979 16 15.9953V0.0046875C16 0.00209867 15.9979 0 15.9953 0Z" fill="#CC6699"/>
<path d="M8.06249 2.74999C5.06249 3.78124 3.12499 5.875 3.31249 7.125C3.49999 8.375 5.37499 9.375 6.21874 10.0312C5.12499 10.5938 3.74999 11.4375 3.78124 12.5313C3.84374 14.0313 5.46874 13.5625 6.15624 13.125C6.84374 12.6875 7.53124 11.4688 7.09374 10.1875C8.06249 9.9375 8.90624 10.25 9.15624 10.4375C10.125 11.125 9.62499 11.9063 9.28124 12.0313C8.93749 12.1563 9.15624 12.2188 9.37499 12.1563C9.59374 12.0938 10.0625 11.7813 10.0625 11.25C10.0625 9.90625 8.62499 9.28125 6.84374 9.75C5.81249 8.65625 4.40624 8.15625 4.46874 6.96875C4.49999 6.53125 4.65624 5.40625 7.43749 4C10.2187 2.59374 12.1875 3.15624 11.9375 4.4375C11.5625 6.375 8.18749 7.6875 6.99999 6.5625C6.93749 6.4375 6.71874 6.34375 6.84374 6.6875C7.46874 8.25 12.5312 7.53125 12.75 4.21875C12.8125 2.46874 10.2812 1.99999 8.06249 2.74999ZM5.37499 12.75C4.59374 13 4.62499 12.5 4.65624 12.3125C4.74999 11.7813 5.18749 11.125 6.49999 10.4688C6.87499 11.6563 6.03124 12.5625 5.37499 12.75Z" fill="white"/>
</svg>
