<svg width="16" height="16" viewBox="0 0 16 16" fill="none" xmlns="http://www.w3.org/2000/svg">
<path d="M16 5.91303V14.6087C16 15.3771 15.3771 16 14.6087 16H1.39131C0.622922 16 0 15.3771 0 14.6087V5.91303C0 5.14465 0.622922 4.52173 1.39131 4.52173H14.6087C15.3771 4.52173 16 5.14465 16 5.91303Z" fill="#4D4337"/>
<path d="M16 7.65217V14.6087C16 15.3771 15.3771 16 14.6087 16H1.3913C0.622922 16 0 15.3771 0 14.6087V7.65217H16ZM4.17391 1.73913H11.8261V0H4.17391V1.73913Z" fill="#231C10"/>
<path d="M5.2174 8.69566H3.47827V1.73913L4.17392 0H5.2174V8.69566ZM12.5217 1.73913L11.8261 0H10.7826V8.69566H12.5217V1.73913Z" fill="#3E362B"/>
<path d="M16 8V14.6087C16 15.3771 15.3771 16 14.6087 16H1.39131C0.622922 16 0 15.3771 0 14.6087V8H16Z" fill="#A8A182"/>
<path d="M16 8.34784V14.6087C16 15.3771 15.3771 16 14.6087 16H1.39131C0.622922 16 0 15.3771 0 14.6087V8.34784H16Z" fill="#635547"/>
<path d="M8.8696 6.60868H7.13046C7.03442 6.60868 6.95654 6.5308 6.95654 6.43477V6.08694C6.95654 5.9909 7.03442 5.91302 7.13046 5.91302H8.8696C8.96564 5.91302 9.04351 5.9909 9.04351 6.08694V6.43477C9.04351 6.5308 8.96564 6.60868 8.8696 6.60868Z" fill="#BFA881"/>
</svg>
