<svg width="16" height="16" viewBox="0 0 16 16" fill="none" xmlns="http://www.w3.org/2000/svg">
<path d="M7.99997 0C4.63835 0 1.91351 2.72523 1.91351 6.08646C1.91351 8.08172 4.05801 11.8697 5.801 14.619C6.96839 16.4603 9.03156 16.4603 10.1989 14.619C11.9419 11.8693 14.0864 8.08172 14.0864 6.08646C14.0864 2.72483 11.3616 0 7.99997 0ZM7.99997 8.94868C6.32844 8.94868 4.97313 7.59337 4.97313 5.92183C4.97313 4.2503 6.32844 2.89499 7.99997 2.89499C9.67151 2.89499 11.0268 4.2503 11.0268 5.92183C11.0268 7.59337 9.67151 8.94868 7.99997 8.94868Z" fill="#C80000"/>
</svg>
