<svg width="24" height="22" viewBox="0 0 24 22" fill="none" xmlns="http://www.w3.org/2000/svg">
<g filter="url(#filter0_d_3_288)">
<path d="M18.75 2.25H5.25001C4.56078 2.25 4 2.81078 4 3.5V12.5001C4 13.1892 4.56078 13.75 5.25001 13.75H18.75C19.4393 13.75 20 13.1892 20 12.5001V3.5C20 2.81078 19.4393 2.25 18.75 2.25Z" fill="#5D647F"/>
<path d="M9.5 7.25H6.5C6.22384 7.25 6 7.02615 6 6.74999V4.74999C6 4.47384 6.22384 4.25 6.5 4.25H9.5C9.77616 4.25 10 4.47384 10 4.74999V6.74999C10 7.02615 9.77616 7.25 9.5 7.25Z" fill="#FFD100"/>
<path d="M7.74999 10.5H6.5C6.22384 10.5 6 10.2762 6 9.99999V9.74999C6 9.47384 6.22384 9.25 6.5 9.25H7.74999C8.02615 9.25 8.25001 9.47384 8.25001 9.74999V9.99999C8.25001 10.2762 8.02615 10.5 7.74999 10.5Z" fill="#B8BAC0"/>
<path d="M11 10.5H9.74999C9.47384 10.5 9.25 10.2762 9.25 9.99999V9.74999C9.25 9.47384 9.47384 9.25 9.74999 9.25H11C11.2762 9.25 11.5 9.47384 11.5 9.74999V9.99999C11.5 10.2762 11.2762 10.5 11 10.5Z" fill="#B8BAC0"/>
<path d="M14.25 10.5H13C12.7238 10.5 12.5 10.2762 12.5 9.99999V9.74999C12.5 9.47384 12.7238 9.25 13 9.25H14.25C14.5262 9.25 14.75 9.47384 14.75 9.74999V9.99999C14.75 10.2762 14.5262 10.5 14.25 10.5Z" fill="#B8BAC0"/>
<path d="M17.5 10.5H16.2501C15.9739 10.5 15.75 10.2762 15.75 9.99999V9.74999C15.75 9.47384 15.9739 9.25 16.2501 9.25H17.5C17.7761 9.25 18 9.47384 18 9.74999V9.99999C18 10.2762 17.7761 10.5 17.5 10.5Z" fill="#B8BAC0"/>
<path d="M11.25 12H6.25001C6.11181 12 6 11.8881 6 11.75C6 11.6119 6.11181 11.4999 6.25001 11.4999H11.25C11.3882 11.4999 11.5 11.6119 11.5 11.75C11.5 11.8881 11.3882 12 11.25 12Z" fill="#8A8895"/>
<path d="M14.5 12H12.25C12.1118 12 12 11.8881 12 11.75C12 11.6119 12.1118 11.4999 12.25 11.4999H14.5C14.6382 11.4999 14.75 11.6119 14.75 11.75C14.75 11.8881 14.6382 12 14.5 12Z" fill="#8A8895"/>
<path d="M15.4999 6.75005C15.2253 7.0569 14.8262 7.25 14.382 7.25C13.5535 7.25 12.882 6.57844 12.882 5.74999C12.882 4.92155 13.5535 4.25 14.382 4.25C14.8261 4.25 15.2251 4.44302 15.4998 4.74978" fill="#FF4F19"/>
<path d="M10 5.99999H7.5V5.49999H10V4.99999H7.5V4.25H7V7.25H7.5V6.49999H10V5.99999Z" fill="#FF9500"/>
<path d="M16.5001 7.25C17.3284 7.25 18 6.57843 18 5.74999C18 4.92156 17.3284 4.25 16.5001 4.25C15.6716 4.25 15 4.92156 15 5.74999C15 6.57843 15.6716 7.25 16.5001 7.25Z" fill="#FFD100"/>
</g>
<defs>
<filter id="filter0_d_3_288" x="0" y="0" width="24" height="24" filterUnits="userSpaceOnUse" color-interpolation-filters="sRGB">
<feFlood flood-opacity="0" result="BackgroundImageFix"/>
<feColorMatrix in="SourceAlpha" type="matrix" values="0 0 0 0 0 0 0 0 0 0 0 0 0 0 0 0 0 0 127 0" result="hardAlpha"/>
<feOffset dy="4"/>
<feGaussianBlur stdDeviation="2"/>
<feComposite in2="hardAlpha" operator="out"/>
<feColorMatrix type="matrix" values="0 0 0 0 0 0 0 0 0 0 0 0 0 0 0 0 0 0 0.25 0"/>
<feBlend mode="normal" in2="BackgroundImageFix" result="effect1_dropShadow_3_288"/>
<feBlend mode="normal" in="SourceGraphic" in2="effect1_dropShadow_3_288" result="shape"/>
</filter>
</defs>
</svg>
