<svg width="16" height="16" viewBox="0 0 16 16" fill="none" xmlns="http://www.w3.org/2000/svg">
<path d="M1.99998 0H14C14.552 0 15 0.447979 15 0.999986V15C15 15.552 14.552 16 14 16H1.99998C1.44798 16 1 15.552 1 15V0.999986C0.999945 0.447485 1.44798 0 1.99998 0Z" fill="#EAEDED"/>
<path d="M2.49994 1.5H13.5V5.00003H2.49994V1.5Z" fill="#D3D6D8"/>
<path d="M10.5 2.5V4.00001H12.5001V2.5H10.5ZM12 3.50004H11V3.00002H12V3.50004Z" fill="#B7BBBD"/>
<path d="M2.49994 8.49953H4.49996V6.49951H2.49994V8.49953ZM5.49995 8.49953H7.49998V6.49951H5.49995V8.49953ZM8.49996 6.5V8.50002H10.5V6.5H8.49996ZM2.49994 11.4995H4.49996V9.50007H2.49994V11.4995ZM5.49995 11.4995H7.49998V9.50007H5.49995V11.4995ZM8.49996 11.4995H10.5V9.50007H8.49996V11.4995ZM2.49994 14.4995H4.49996V12.4995H2.49994V14.4995ZM5.49995 14.4995H7.49998V12.4995H5.49995V14.4995ZM8.49996 14.4995H10.5V12.4995H8.49996V14.4995Z" fill="#49616E"/>
<path d="M11.4999 6.5V8.50003H13.5V6.5H11.4999ZM11.4999 14.4995H13.5V9.50006H11.4999V14.4995Z" fill="#E2574C"/>
</svg>
