<svg width="16" height="16" viewBox="0 0 16 16" fill="none" xmlns="http://www.w3.org/2000/svg">
<g clip-path="url(#clip0_3_257)">
<path d="M3.64214 7.76315C3.68269 7.76315 3.72381 7.75365 3.76229 7.73365C3.89001 7.66715 3.93967 7.50975 3.87316 7.38202L2.54156 4.82377C2.49667 4.73752 2.40754 4.68347 2.31032 4.68347H1.40204C1.25807 4.68347 1.14136 4.80017 1.14136 4.94415C1.14136 5.08812 1.25807 5.20485 1.40204 5.20485H2.15207L3.41064 7.62277C3.45711 7.71202 3.54801 7.76315 3.64214 7.76315Z" fill="#FFD117"/>
<path d="M12.3118 7.76315C12.2712 7.76315 12.2301 7.75365 12.1916 7.73365C12.0639 7.66715 12.0142 7.50975 12.0807 7.38202L13.4123 4.82377C13.4573 4.73752 13.5464 4.68347 13.6436 4.68347H14.5518C14.6958 4.68347 14.8125 4.80017 14.8125 4.94415C14.8125 5.08812 14.6958 5.20485 14.5518 5.20485H13.8018L12.5432 7.62277C12.4968 7.71202 12.4059 7.76315 12.3118 7.76315Z" fill="#FFD117"/>
<path d="M11.9127 3.71641C11.7361 3.37723 11.2789 3.09973 10.8965 3.09973H5.05733C4.67496 3.09973 4.21771 3.37723 4.04116 3.71641L2.70953 6.27461L3.44028 8.01261H12.5135L13.2442 6.27461L11.9127 3.71641Z" fill="#FFB367"/>
<path d="M3.68161 7.58588H12.2723L12.7304 6.4165L11.4502 3.95715C11.3635 3.79073 11.0841 3.62115 10.8965 3.62115H5.05736C4.86974 3.62115 4.59029 3.79073 4.50366 3.95715L3.22351 6.4165L3.68161 7.58588Z" fill="white"/>
<path d="M3.28116 11.5012H0.538208V12.9003H3.28116V11.5012Z" fill="#6D6D6D"/>
<path d="M15.4154 11.5012H12.6725V12.9003H15.4154V11.5012Z" fill="#6D6D6D"/>
<path d="M14.2856 5.98688L12.2723 6.54303H3.68168L1.66836 5.98688C0.710707 5.98688 -0.0386983 6.76863 0.0016142 7.72488L2.2513 8.491L0.0659267 9.0124L0.190708 11.5013H15.7633L15.8881 9.0124L13.7027 8.491L15.9524 7.72488C15.9927 6.76865 15.2433 5.98688 14.2856 5.98688Z" fill="#FFD117"/>
<path d="M16 7.7249C16 7.72628 16 7.72768 16 7.72905L15.9357 9.0124H12.7075C12.7075 8.30155 13.2838 7.72485 13.995 7.72485H16V7.7249Z" fill="#FF7039"/>
<path d="M3.29399 9.01266H0.0658384L0.00152588 7.72931C0.00152588 7.72793 0.00152588 7.72653 0.00152588 7.72516H2.00649C2.71769 7.72516 3.29399 8.30181 3.29399 9.01266Z" fill="#FF7039"/>
<path d="M10.8685 9.76178H5.08539V10.9801H10.8685V9.76178Z" fill="#FFF0B2"/>
<path d="M9.4227 9.0124H6.53112C6.38715 9.0124 6.27045 8.89568 6.27045 8.75173C6.27045 8.60775 6.38715 8.49103 6.53112 8.49103H9.4227C9.56665 8.49103 9.68337 8.60775 9.68337 8.75173C9.6834 8.89568 9.5667 9.0124 9.4227 9.0124Z" fill="#FFB367"/>
</g>
<defs>
<clipPath id="clip0_3_257">
<rect width="16" height="16" fill="white"/>
</clipPath>
</defs>
</svg>
