<svg width="16" height="16" viewBox="0 0 16 16" fill="none" xmlns="http://www.w3.org/2000/svg">
<path d="M8 16C12.4183 16 16 12.4183 16 8C16 3.58172 12.4183 0 8 0C3.58172 0 0 3.58172 0 8C0 12.4183 3.58172 16 8 16Z" fill="#DADADA"/>
<path d="M11.0126 7.98126C10.7294 8.19792 10.3801 8.32275 10.0084 8.32275C9.65505 8.32275 9.30211 8.20909 9.00422 7.98126C8.72102 8.19792 8.37168 8.32275 8.00005 8.32275C7.64674 8.32275 7.2938 8.20912 6.99585 7.98126C6.7126 8.19792 6.36325 8.32275 5.99165 8.32275C5.63765 8.32275 5.28477 8.20869 4.98748 7.98126C4.70417 8.19792 4.35485 8.32275 3.98328 8.32275C3.68925 8.32275 3.41271 8.24469 3.172 8.10809V12.9121C3.172 13.0395 3.27271 13.1428 3.39697 13.1428H6.94431V9.57018C6.94431 9.44275 7.04503 9.33943 7.16925 9.33943H8.83085C8.95508 9.33943 9.0558 9.44275 9.0558 9.57018V13.1428H12.6031C12.7274 13.1428 12.8281 13.0395 12.8281 12.9121V8.10809C12.5874 8.24469 12.3108 8.32275 12.0168 8.32275C11.6642 8.32275 11.3111 8.20955 11.0126 7.98126ZM3.88311 9.81778C3.88311 9.63529 4.02734 9.48738 4.20523 9.48738H5.8484C6.02631 9.48738 6.17054 9.63532 6.17054 9.81778V10.0225H3.88311V9.81778ZM6.17054 11.7515C6.17054 11.9339 6.02631 12.0819 5.8484 12.0819H4.20525C4.02734 12.0819 3.88314 11.9339 3.88314 11.7515V10.7061H6.17054V11.7515ZM12.1124 11.7515C12.1124 11.9339 11.9682 12.0819 11.7903 12.0819H10.1471C9.96922 12.0819 9.82502 11.9339 9.82502 11.7515V10.7061H12.1124V11.7515ZM12.1124 9.81778V10.0225H9.82502V9.81778C9.82502 9.63529 9.96925 9.48738 10.1471 9.48738H11.7903C11.9682 9.48738 12.1124 9.63532 12.1124 9.81778Z" fill="white"/>
<path d="M3.9832 7.75309C4.42175 7.75309 4.80143 7.4958 4.9874 7.12052C5.17337 7.49577 5.55306 7.75309 5.99157 7.75309C6.43012 7.75309 6.8098 7.49577 6.9958 7.12052C7.18175 7.49577 7.56146 7.75309 7.99997 7.75309C8.43852 7.75309 8.81823 7.49577 9.00417 7.12052C9.19015 7.49577 9.56986 7.75309 10.0084 7.75309C10.4469 7.75309 10.8266 7.4958 11.0125 7.12052C11.1985 7.49577 11.5782 7.75309 12.0167 7.75309C12.6387 7.75309 13.1428 7.23595 13.1428 6.59803C13.1429 6.38843 12.3052 3.38175 12.3052 3.38175C12.2246 3.07235 11.9514 2.85712 11.6391 2.85712H4.38229C4.07172 2.85712 3.79949 3.07015 3.71743 3.37737C3.68117 3.51306 2.85712 6.38303 2.85712 6.59803C2.85712 7.23595 3.36129 7.75309 3.9832 7.75309Z" fill="#A8A8A8"/>
</svg>
