<svg width="94" height="94" viewBox="0 0 94 94" fill="none" xmlns="http://www.w3.org/2000/svg">
<circle cx="68" cy="47" r="26" fill="white"/>
<path d="M81.6 47.0375C81.6 40.8313 77.4062 35.4188 71.3937 33.875C70.8187 33.725 70.2312 34.075 70.0875 34.65C69.9375 35.225 70.2875 35.8125 70.8625 35.9563C75.9187 37.25 79.45 41.8125 79.45 47.0375C79.45 51.6438 76.7062 55.725 72.6 57.5188L73.5937 55.2063C73.825 54.6625 73.575 54.0313 73.0312 53.7938C72.4875 53.5625 71.8562 53.8125 71.6187 54.3563L69.6812 58.8688C69.45 59.4125 69.7 60.0438 70.2437 60.2813L74.7562 62.2188C75.4312 62.4563 75.9937 62.0625 76.1687 61.6563C76.4 61.1125 76.15 60.4813 75.6062 60.2438L73.6437 59.4C78.425 57.2375 81.6 52.4375 81.6 47.0375V47.0375Z" fill="black"/>
<path d="M65.15 58.1187C60.0938 56.8187 56.5625 52.2625 56.5625 47.0375C56.5625 42.4937 59.2313 38.4625 63.2438 36.6312L62.3125 38.7937C62.0813 39.3375 62.3188 39.9937 62.875 40.2062C63.525 40.45 64.075 40.1562 64.2875 39.6437L66.225 35.125C66.4125 34.6875 66.4063 34.0312 65.6625 33.7125L61.15 31.775C60.6063 31.5437 59.975 31.7937 59.7375 32.3375C59.5063 32.8812 59.7563 33.5125 60.3 33.75L62.4 34.65C57.6 36.8187 54.4125 41.625 54.4125 47.0375C54.4125 53.2437 58.6125 58.65 64.6188 60.2C65.3438 60.3875 65.8 59.9125 65.925 59.425C66.0688 58.85 65.725 58.2687 65.15 58.1187V58.1187Z" fill="black"/>
<path d="M70.5375 51.0875C71.0875 50.5125 71.3625 49.7875 71.3625 48.925C71.3625 48.5312 71.2937 48.1687 71.1625 47.8312C71.0312 47.4937 70.8437 47.2062 70.6 46.9562C70.3562 46.7125 70.0375 46.5062 69.65 46.3312C69.4437 46.2437 69.0312 46.1187 68.4 45.9625V42.375C68.8062 42.4562 69.125 42.6312 69.3625 42.8937C69.5937 43.1562 69.75 43.5312 69.825 44.0187L71.1125 43.825C71 43.0375 70.675 42.4125 70.1312 41.9625C69.7062 41.6062 69.1312 41.3937 68.4062 41.325V40.7312H67.6687V41.325C66.8437 41.4062 66.2187 41.6375 65.8 42.0062C65.1687 42.5562 64.8562 43.275 64.8562 44.1625C64.8562 44.6625 64.9625 45.1062 65.1812 45.5C65.3937 45.8937 65.7 46.2 66.1 46.4187C66.6375 46.7187 67.1625 46.9187 67.675 47.0125V50.9812C67.1875 50.9312 66.7625 50.6812 66.4125 50.2375C66.1687 49.925 65.9937 49.4312 65.9 48.7625L64.6437 49C64.6875 49.6437 64.8562 50.1937 65.1375 50.6437C65.4187 51.0937 65.7562 51.4187 66.15 51.6187C66.5375 51.8187 67.05 51.9562 67.6687 52.0375V53.2812H68.4062V52.0187C69.2812 51.9749 69.9937 51.6625 70.5375 51.0875ZM67.675 45.8062C67.1062 45.6375 66.7062 45.4062 66.4687 45.1187C66.2312 44.8312 66.1125 44.475 66.1125 44.05C66.1125 43.6187 66.25 43.25 66.5312 42.9375C66.8125 42.625 67.1937 42.4312 67.675 42.3562V45.8062ZM69.6062 50.3437C69.2875 50.7062 68.8875 50.9125 68.4062 50.975V47.1812C69.075 47.4 69.525 47.6437 69.75 47.9187C69.975 48.1937 70.0875 48.5562 70.0875 49.0125C70.0812 49.5375 69.925 49.9875 69.6062 50.3437V50.3437Z" fill="black"/>
<circle cx="26" cy="47" r="26" fill="white"/>
<path d="M28.8468 46.9692C28.8468 48.5467 27.568 49.8255 25.9905 49.8255C24.413 49.8255 23.1342 48.5467 23.1342 46.9692C23.1342 45.3917 24.413 44.1129 25.9905 44.1129C27.568 44.1129 28.8468 45.3917 28.8468 46.9692Z" fill="#2D5100"/>
<path d="M25.9893 53.5114C25.7511 53.5173 25.4702 53.5209 25.1881 53.5209C21.8566 53.5209 18.6435 53.0172 15.6201 52.0821L15.8489 52.1425C14.2477 51.6258 12.8598 50.8637 11.6521 49.8871L11.677 49.9061C10.7419 49.2293 10.1126 48.1816 10.0059 46.9822L10.0047 46.9668C10.0047 45.0776 12.0752 43.2287 15.5526 42.0222C18.5298 41.0421 21.9561 40.4767 25.5141 40.4767C25.6788 40.4767 25.8435 40.4779 26.0083 40.4803H25.9834C26.1209 40.4779 26.2821 40.4767 26.4444 40.4767C29.9585 40.4767 33.3422 41.0326 36.5138 42.0613L36.2827 41.9962C37.8293 42.4987 39.1721 43.224 40.3514 44.1461L40.323 44.1247C41.2415 44.7719 41.8613 45.7887 41.9656 46.9538L41.9668 46.9692C41.9668 48.9319 39.651 50.9182 35.9188 52.1532C33.1182 53.0172 29.8981 53.515 26.5618 53.515C26.3603 53.515 26.16 53.5126 25.9597 53.509H25.9893V53.5114ZM25.9893 41.8492C25.8637 41.8468 25.7144 41.8468 25.565 41.8468C22.1505 41.8468 18.8616 42.3825 15.7766 43.3745L16.003 43.3117C12.8053 44.427 11.3712 45.9523 11.3712 46.9704C11.3712 48.0287 12.9132 49.6963 16.2933 50.8507C18.9588 51.6767 22.0225 52.1532 25.1976 52.1532C25.4761 52.1532 25.7535 52.1496 26.0296 52.1425L25.9893 52.1437C26.1624 52.1473 26.3662 52.1496 26.5701 52.1496C29.7511 52.1496 32.8207 51.6756 35.7138 50.795L35.4921 50.853C39.0003 49.6868 40.6121 48.0193 40.6121 46.9656C40.4912 46.2095 40.0646 45.5719 39.4673 45.1701L39.4578 45.1642C38.4314 44.3653 37.2344 43.7218 35.9378 43.2987L35.8548 43.275C33.0483 42.3671 29.8187 41.8433 26.4681 41.8433C26.2998 41.8433 26.1327 41.8444 25.9656 41.8468H25.9905L25.9893 41.8492Z" fill="#2D5100"/>
<path d="M19.5088 61.2056C19.4898 61.2056 19.4673 61.2068 19.4459 61.2068C18.9091 61.2068 18.4053 61.0658 17.9704 60.8193L17.9858 60.8276C16.3526 59.8794 15.7837 57.163 16.4688 53.5493C17.2948 49.8421 18.6341 46.5639 20.432 43.5938L20.3502 43.7407C22.1268 40.5941 24.2732 37.9025 26.7799 35.5961L26.8036 35.5748C27.8975 34.5745 29.1775 33.7532 30.5808 33.1713L30.6673 33.1393C31.1496 32.907 31.7162 32.7719 32.3147 32.7719C32.9085 32.7719 33.4714 32.9058 33.9739 33.144L33.9502 33.1345C35.651 34.1135 36.2151 37.1167 35.4175 40.9639C34.5642 44.4803 33.2628 47.5772 31.5514 50.3967L31.6344 50.251C29.9135 53.368 27.8311 56.037 25.3932 58.3327L25.3766 58.3481C24.2412 59.3876 22.9079 60.2326 21.4406 60.8157L21.3529 60.8465C20.8077 61.061 20.1772 61.1926 19.5171 61.208H19.5099L19.5088 61.2056ZM20.9369 44.0833L21.5283 44.4246C19.8916 47.1268 18.6068 50.2628 17.8471 53.5979L17.8068 53.8113C17.1751 57.1404 17.7843 59.1422 18.6602 59.6495C18.8865 59.7704 19.1544 59.8403 19.4388 59.8403C19.4625 59.8403 19.4874 59.8403 19.5111 59.8391H19.5076C20.6394 59.8391 22.4208 59.1221 24.4806 57.3241C26.8225 55.1114 28.8113 52.5561 30.3734 49.7342L30.4539 49.5742C32.016 47.019 33.264 44.0596 34.0391 40.9141L34.0842 40.6984C34.8296 37.0741 34.1861 34.8554 33.2711 34.3244C32.9891 34.213 32.6619 34.149 32.3206 34.149C31.8892 34.149 31.4815 34.2521 31.1212 34.4335L31.1366 34.4264C29.8116 34.9775 28.6738 35.7135 27.6913 36.6142L27.6996 36.6071C25.2806 38.8364 23.2291 41.4154 21.6125 44.2729L21.5307 44.4293L20.9369 44.0833Z" fill="#2D5100"/>
<path d="M32.4711 61.2222C30.9232 61.2222 28.963 60.2895 26.9126 58.5247C24.3348 56.1745 22.1517 53.4498 20.4367 50.4252L20.3514 50.2628C18.6566 47.4788 17.328 44.248 16.541 40.8109L16.4984 40.5917C16.3064 39.7514 16.1961 38.7878 16.1961 37.7982C16.1961 37.1736 16.24 36.5609 16.3241 35.96L16.3158 36.0287C16.4166 34.8459 17.0364 33.8266 17.9419 33.1855L17.9538 33.1772C19.6486 32.1935 22.5345 33.2056 25.4702 35.8178C27.8667 38.0862 29.9123 40.6924 31.536 43.5689L31.6213 43.7324C33.3138 46.4548 34.6518 49.6121 35.4637 52.9745L35.5087 53.1949C35.7019 54.0352 35.8133 55.0012 35.8133 55.992C35.8133 56.6758 35.7612 57.3466 35.6592 58.002L35.6687 57.9286C35.5467 59.1398 34.9055 60.1816 33.9751 60.8394L33.9621 60.8477C33.5496 61.0835 33.0566 61.2222 32.5315 61.2222C32.5102 61.2222 32.4889 61.2222 32.4675 61.221H32.4711V61.2222ZM21.5342 49.5801C23.2622 52.6272 25.347 55.2346 27.7813 57.4687L27.805 57.49C30.3721 59.698 32.4083 60.1757 33.2901 59.6637C34.2062 59.1351 34.877 56.9662 34.1837 53.4616C33.3517 50.0364 32.0658 47.0213 30.3686 44.2871L30.4456 44.4198C28.8112 41.509 26.8581 39.013 24.5813 36.8536L24.5671 36.8406C21.8009 34.3825 19.5597 33.8302 18.6435 34.3588C18.083 34.8151 17.7144 35.4871 17.6658 36.2468V36.2551C17.6006 36.7173 17.5638 37.2506 17.5638 37.7935C17.5638 38.6906 17.6658 39.5629 17.8578 40.402L17.8424 40.3238C18.64 43.8225 19.9129 46.9123 21.6136 49.7152L21.5354 49.5766L21.5342 49.5801Z" fill="#2D5100"/>
</svg>
